<svg xmlns="http://www.w3.org/2000/svg" xmlns:xlink="http://www.w3.org/1999/xlink" width="30" height="30" viewBox="0 0 30 30">
  <defs>
    <clipPath id="clip-path">
      <rect id="矩形_273" data-name="矩形 273" width="30" height="30" transform="translate(-1204 2794)" fill="#030303" stroke="#707070" stroke-width="1"/>
    </clipPath>
  </defs>
  <g id="蒙版组_87" data-name="蒙版组 87" transform="translate(1204 -2794)" clip-path="url(#clip-path)">
    <g id="coins" transform="translate(-1200.814 2790.247)">
      <path id="路径_3" data-name="路径 3" d="M7.93,30.165c.33,0,.663,0,.985-.016l.1,0-.027-.1a8.316,8.316,0,0,1-.275-2.134,8.446,8.446,0,0,1,.12-1.42l.016-.089-.093,0c-.26-.008-.535-.012-.83-.012-4.535,0-7.926,1-7.926,1.889S3.391,30.165,7.93,30.165Z" transform="translate(0 -9.811)" fill="#030303"/>
      <path id="路径_4" data-name="路径 4" d="M2.751,37.635a25.085,25.085,0,0,0,5.179.5c.919,0,1.827-.043,2.7-.128l.151-.016-.1-.116A8.2,8.2,0,0,1,9.237,35.4l-.019-.054-.058,0c-.4.016-.815.023-1.23.023-3.422,0-6.486-.563-7.805-1.432L0,33.86v2.394C0,36.541.578,37.158,2.751,37.635Z" transform="translate(0 -14.383)" fill="#030303"/>
      <path id="路径_5" data-name="路径 5" d="M11.367,43.977l-.027-.027-.039,0a27.936,27.936,0,0,1-3.371.194,25.4,25.4,0,0,1-5.315-.516,8.167,8.167,0,0,1-2.491-.9L0,42.65v2.378c0,.788,3.018,1.882,7.93,1.882a20.111,20.111,0,0,0,6.622-.916l.213-.081-.217-.07a8.235,8.235,0,0,1-3.181-1.866Z" transform="translate(0 -19.763)" fill="#030303"/>
      <path id="路径_6" data-name="路径 6" d="M31.839,10.36A7.741,7.741,0,1,0,39.579,18.1,7.749,7.749,0,0,0,31.839,10.36Zm0,13.632A5.889,5.889,0,1,1,37.728,18.1,5.9,5.9,0,0,1,31.839,23.992Z" transform="translate(-14.751 0)" fill="#030303"/>
      <path id="路径_7" data-name="路径 7" d="M42.5,24.264a1.851,1.851,0,0,0-.423-.306c-.147-.078-.3-.147-.493-.225-.136-.05-.275-.1-.411-.151a3.09,3.09,0,0,1-.369-.167.608.608,0,0,1-.221-.182.362.362,0,0,1-.07-.225.368.368,0,0,1,.039-.171.271.271,0,0,1,.085-.109.528.528,0,0,1,.194-.089,1.267,1.267,0,0,1,.326-.035,1.417,1.417,0,0,1,.388.047,2.905,2.905,0,0,1,.326.109c.1.043.178.078.244.109a.525.525,0,0,0,.233.074.226.226,0,0,0,.136-.043.246.246,0,0,0,.1-.132.661.661,0,0,0,.035-.171c0-.058.008-.132.008-.221,0-.07,0-.128-.008-.167a.617.617,0,0,0-.016-.155.406.406,0,0,0-.047-.132.455.455,0,0,0-.081-.1.619.619,0,0,0-.171-.113c-.066-.027-.136-.058-.217-.089s-.163-.05-.252-.07l-.109-.023.066-.648a.543.543,0,0,0-.019-.132.266.266,0,0,0-.151-.155.715.715,0,0,0-.163-.039,1.834,1.834,0,0,0-.233-.016,1.238,1.238,0,0,0-.19.008.512.512,0,0,0-.151.035.327.327,0,0,0-.128.1.246.246,0,0,0-.043.124l-.07.706a2.35,2.35,0,0,0-.555.151,1.688,1.688,0,0,0-.531.341,1.486,1.486,0,0,0-.33.493,1.6,1.6,0,0,0-.116.625,1.631,1.631,0,0,0,.112.64,1.4,1.4,0,0,0,.3.462,1.909,1.909,0,0,0,.419.314,3.106,3.106,0,0,0,.45.206c.151.062.3.116.438.167a2.188,2.188,0,0,1,.361.167.688.688,0,0,1,.221.182.349.349,0,0,1,.066.229.407.407,0,0,1-.175.353,1.035,1.035,0,0,1-.621.147,1.816,1.816,0,0,1-.5-.058,2.366,2.366,0,0,1-.613-.256.45.45,0,0,0-.237-.085.3.3,0,0,0-.155.043.31.31,0,0,0-.116.147,1.03,1.03,0,0,0-.039.182c0,.062-.008.147-.008.241a1.733,1.733,0,0,0,.023.314.444.444,0,0,0,.109.213.832.832,0,0,0,.182.128,2.024,2.024,0,0,0,.237.1,3.16,3.16,0,0,0,.3.093c.066.016.132.027.2.043l-.066.663a.313.313,0,0,0,.016.194.375.375,0,0,0,.128.132.665.665,0,0,0,.175.05,1.75,1.75,0,0,0,.237.016.95.95,0,0,0,.2-.016.531.531,0,0,0,.12-.031.213.213,0,0,0,.136-.1.306.306,0,0,0,.05-.136l.074-.756a3.019,3.019,0,0,0,.632-.151,1.975,1.975,0,0,0,.605-.361,1.571,1.571,0,0,0,.4-.547,1.668,1.668,0,0,0,.136-.7,1.554,1.554,0,0,0-.116-.636A1.249,1.249,0,0,0,42.5,24.264Z" transform="translate(-23.883 -6.231)" fill="#030303"/>
    </g>
  </g>
</svg>
