<svg xmlns="http://www.w3.org/2000/svg" xmlns:xlink="http://www.w3.org/1999/xlink" width="30" height="30" viewBox="0 0 30 30">
  <defs>
    <clipPath id="clip-path">
      <rect id="矩形_272" data-name="矩形 272" width="30" height="30" transform="translate(-1288 2828)" fill="#030303" stroke="#707070" stroke-width="1"/>
    </clipPath>
    <clipPath id="clip-path-2">
      <rect id="矩形_269" data-name="矩形 269" width="36" height="36" transform="translate(231.5 753.5)" fill="#030303"/>
    </clipPath>
  </defs>
  <g id="蒙版组_86" data-name="蒙版组 86" transform="translate(1288 -2828)" clip-path="url(#clip-path)">
    <g id="蒙版组_83" data-name="蒙版组 83" transform="translate(-1519.5 2074.5)" clip-path="url(#clip-path-2)">
      <path id="people" d="M23,19a1,1,0,0,1-1,1H10a1,1,0,0,1-1-1,6,6,0,0,1,6-6h2A6,6,0,0,1,23,19ZM16,4a4,4,0,1,0,4,4A4,4,0,0,0,16,4ZM7,4a4,4,0,1,0,4,4A4,4,0,0,0,7,4ZM7,19a7.94,7.94,0,0,1,2.35-5.65A5.43,5.43,0,0,0,7.44,13H6.56A5.57,5.57,0,0,0,1,18.56V19a1,1,0,0,0,1,1H7.18A3,3,0,0,1,7,19Z" transform="translate(235.5 756.5)" fill="#030303"/>
    </g>
  </g>
</svg>
