<svg xmlns="http://www.w3.org/2000/svg" xmlns:xlink="http://www.w3.org/1999/xlink" width="30" height="30" viewBox="0 0 30 30">
  <defs>
    <clipPath id="clip-path">
      <rect id="矩形_270" data-name="矩形 270" width="30" height="30" transform="translate(-1362 2828)" fill="#030303" stroke="#707070" stroke-width="1"/>
    </clipPath>
  </defs>
  <g id="蒙版组_84" data-name="蒙版组 84" transform="translate(1362 -2828)" clip-path="url(#clip-path)">
    <path id="xbox" d="M23.959,18.581l-2.324-5.26a6.347,6.347,0,0,0-5.783-3.768H13.9V8.76a.793.793,0,0,1,.793-.793,2.38,2.38,0,0,0,2.38-2.38V4H15.486V5.587a.793.793,0,0,1-.793.793,2.38,2.38,0,0,0-2.38,2.38v.793H10.361a6.347,6.347,0,0,0-5.783,3.768l-2.324,5.26a3.173,3.173,0,0,0,1.071,3.832,2.737,2.737,0,0,0,1.587.516,2.777,2.777,0,0,0,2.031-.881l1.587-1.674a1.96,1.96,0,0,0,1.008.286,1.983,1.983,0,0,0,1.983-1.983v-.262a4.76,4.76,0,0,1,1.095-.135H13.6a4.76,4.76,0,0,1,1.119.135q0,.131,0,.262a1.983,1.983,0,0,0,1.96,1.983,1.96,1.96,0,0,0,1.007-.286l1.587,1.674a2.785,2.785,0,0,0,3.681.333A3.173,3.173,0,0,0,23.959,18.581ZM9.933,13.52h.793v1.587H9.933V15.9H8.346v-.793H7.553V13.52h.793v-.793H9.933Zm7.14,0a1.079,1.079,0,0,1,0,.159.508.508,0,0,1-.048.143.444.444,0,0,1-.071.135l-.1.127a.912.912,0,0,1-.262.167.811.811,0,0,1-.881-.167l-.1-.127a.444.444,0,0,1-.071-.135.508.508,0,0,1-.063-.143,1.08,1.08,0,0,1,0-.159.833.833,0,0,1,.23-.563l.119-.1a.6.6,0,0,1,.143-.071.508.508,0,0,1,.143-.063.793.793,0,0,1,.46.048.912.912,0,0,1,.262.167.833.833,0,0,1,.23.579ZM18.6,14.805a.746.746,0,0,1,0,.6.782.782,0,0,1-1.46,0,.746.746,0,0,1,0-.6.782.782,0,0,1,1.46,0Z" transform="translate(-1360.108 2827.376)" fill="#030303"/>
  </g>
</svg>
